<svg width="240" height="240" viewBox="0 0 240 240" fill="none" xmlns="http://www.w3.org/2000/svg">
<g clip-path="url(#clip0_22_43)">
<mask id="path-1-inside-1_22_43" fill="white">
<path d="M0 20C0 8.95431 8.95431 0 20 0H60C71.0457 0 80 8.95431 80 20V60C80 71.0457 71.0457 80 60 80H20C8.95431 80 0 71.0457 0 60V20Z"/>
</mask>
<path d="M0 0H80H0ZM84 60C84 73.2548 73.2548 84 60 84H24C10.7452 84 0 73.2548 0 60C0 68.8366 8.95431 76 20 76H60C68.8366 76 76 68.8366 76 60H84ZM0 80V0V80ZM60 0C73.2548 0 84 10.7452 84 24V60C84 73.2548 73.2548 84 60 84V76C68.8366 76 76 68.8366 76 60V20C76 8.95431 68.8366 0 60 0Z" fill="black" mask="url(#path-1-inside-1_22_43)"/>
<mask id="path-3-inside-2_22_43" fill="white">
<path d="M80 20C80 8.95431 88.9543 0 100 0H140C151.046 0 160 8.95431 160 20V60C160 71.0457 151.046 80 140 80H100C88.9543 80 80 71.0457 80 60V20Z"/>
</mask>
<path d="M80 0H160H80ZM164 60C164 73.2548 153.255 84 140 84H100C86.7452 84 76 73.2548 76 60H84C84 68.8366 91.1634 76 100 76H140C148.837 76 156 68.8366 156 60H164ZM100 84C86.7452 84 76 73.2548 76 60V24C76 10.7452 86.7452 0 100 0C91.1634 0 84 8.95431 84 20V60C84 68.8366 91.1634 76 100 76V84ZM140 0C153.255 0 164 10.7452 164 24V60C164 73.2548 153.255 84 140 84V76C148.837 76 156 68.8366 156 60V20C156 8.95431 148.837 0 140 0Z" fill="black" mask="url(#path-3-inside-2_22_43)"/>
<mask id="path-5-inside-3_22_43" fill="white">
<path d="M160 20C160 8.95431 168.954 0 180 0H220C231.046 0 240 8.95431 240 20V60C240 71.0457 231.046 80 220 80H180C168.954 80 160 71.0457 160 60V20Z"/>
</mask>
<path d="M160 0H240H160ZM240 60C240 73.2548 229.255 84 216 84H180C166.745 84 156 73.2548 156 60H164C164 68.8366 171.163 76 180 76H220C231.046 76 240 68.8366 240 60ZM180 84C166.745 84 156 73.2548 156 60V24C156 10.7452 166.745 0 180 0C171.163 0 164 8.95431 164 20V60C164 68.8366 171.163 76 180 76V84ZM240 0V80V0Z" fill="black" mask="url(#path-5-inside-3_22_43)"/>
<mask id="path-7-inside-4_22_43" fill="white">
<path d="M0 100C0 88.9543 8.95431 80 20 80H60C71.0457 80 80 88.9543 80 100V140C80 151.046 71.0457 160 60 160H20C8.95431 160 0 151.046 0 140V100Z"/>
</mask>
<path d="M0 100C0 86.7452 10.7452 76 24 76H60C73.2548 76 84 86.7452 84 100H76C76 91.1634 68.8366 84 60 84H20C8.95431 84 0 91.1634 0 100ZM84 140C84 153.255 73.2548 164 60 164H24C10.7452 164 0 153.255 0 140C0 148.837 8.95431 156 20 156H60C68.8366 156 76 148.837 76 140H84ZM0 160V80V160ZM60 76C73.2548 76 84 86.7452 84 100V140C84 153.255 73.2548 164 60 164V156C68.8366 156 76 148.837 76 140V100C76 91.1634 68.8366 84 60 84V76Z" fill="black" mask="url(#path-7-inside-4_22_43)"/>
<rect x="82" y="82" width="76" height="76" rx="18" stroke="black" stroke-width="4"/>
<mask id="path-10-inside-5_22_43" fill="white">
<path d="M160 100C160 88.9543 168.954 80 180 80H220C231.046 80 240 88.9543 240 100V140C240 151.046 231.046 160 220 160H180C168.954 160 160 151.046 160 140V100Z"/>
</mask>
<path d="M156 100C156 86.7452 166.745 76 180 76H216C229.255 76 240 86.7452 240 100C240 91.1634 231.046 84 220 84H180C171.163 84 164 91.1634 164 100H156ZM240 140C240 153.255 229.255 164 216 164H180C166.745 164 156 153.255 156 140H164C164 148.837 171.163 156 180 156H220C231.046 156 240 148.837 240 140ZM180 164C166.745 164 156 153.255 156 140V100C156 86.7452 166.745 76 180 76V84C171.163 84 164 91.1634 164 100V140C164 148.837 171.163 156 180 156V164ZM240 80V160V80Z" fill="black" mask="url(#path-10-inside-5_22_43)"/>
<mask id="path-12-inside-6_22_43" fill="white">
<path d="M0 180C0 168.954 8.95431 160 20 160H60C71.0457 160 80 168.954 80 180V220C80 231.046 71.0457 240 60 240H20C8.95431 240 0 231.046 0 220V180Z"/>
</mask>
<path d="M0 180C0 166.745 10.7452 156 24 156H60C73.2548 156 84 166.745 84 180H76C76 171.163 68.8366 164 60 164H20C8.95431 164 0 171.163 0 180ZM80 240H0H80ZM0 240V160V240ZM60 156C73.2548 156 84 166.745 84 180V216C84 229.255 73.2548 240 60 240C68.8366 240 76 231.046 76 220V180C76 171.163 68.8366 164 60 164V156Z" fill="black" mask="url(#path-12-inside-6_22_43)"/>
<mask id="path-14-inside-7_22_43" fill="white">
<path d="M80 180C80 168.954 88.9543 160 100 160H140C151.046 160 160 168.954 160 180V220C160 231.046 151.046 240 140 240H100C88.9543 240 80 231.046 80 220V180Z"/>
</mask>
<path d="M76 180C76 166.745 86.7452 156 100 156H140C153.255 156 164 166.745 164 180H156C156 171.163 148.837 164 140 164H100C91.1634 164 84 171.163 84 180H76ZM160 240H80H160ZM100 240C86.7452 240 76 229.255 76 216V180C76 166.745 86.7452 156 100 156V164C91.1634 164 84 171.163 84 180V220C84 231.046 91.1634 240 100 240ZM140 156C153.255 156 164 166.745 164 180V216C164 229.255 153.255 240 140 240C148.837 240 156 231.046 156 220V180C156 171.163 148.837 164 140 164V156Z" fill="black" mask="url(#path-14-inside-7_22_43)"/>
<mask id="path-16-inside-8_22_43" fill="white">
<path d="M160 180C160 168.954 168.954 160 180 160H220C231.046 160 240 168.954 240 180V220C240 231.046 231.046 240 220 240H180C168.954 240 160 231.046 160 220V180Z"/>
</mask>
<path d="M156 180C156 166.745 166.745 156 180 156H216C229.255 156 240 166.745 240 180C240 171.163 231.046 164 220 164H180C171.163 164 164 171.163 164 180H156ZM240 240H160H240ZM180 240C166.745 240 156 229.255 156 216V180C156 166.745 166.745 156 180 156V164C171.163 164 164 171.163 164 180V220C164 231.046 171.163 240 180 240ZM240 160V240V160Z" fill="black" mask="url(#path-16-inside-8_22_43)"/>
<circle cx="120.5" cy="119.5" r="24" stroke="#00C2FF" stroke-width="7"/>
<circle cx="40.5" cy="199.5" r="24" stroke="#00C2FF" stroke-width="7"/>
<circle cx="200.5" cy="38.5" r="24" stroke="#00C2FF" stroke-width="7"/>
<path d="M181 219L219.891 180.109" stroke="#8FFF00" stroke-width="7" stroke-linecap="round"/>
<path d="M181 180L219.891 218.891" stroke="#8FFF00" stroke-width="7" stroke-linecap="round"/>
<path d="M13 227.891L229 11.8909" stroke="#FF0000" stroke-width="7" stroke-linecap="round"/>
</g>
<defs>
<clipPath id="clip0_22_43">
<rect width="240" height="240" fill="white"/>
</clipPath>
</defs>
</svg>
